<?xml version="1.0" encoding="utf-8"?>
<svg width="123px" height="122.99982px" viewBox="0 0 123 122.99982" version="1.1" xmlns:xlink="http://www.w3.org/1999/xlink" xmlns="http://www.w3.org/2000/svg">
  <g id="Group">
    <path d="M37.0001 62C37.0001 48.1929 48.1929 37 62.0001 37C75.8072 37 87.0001 48.1929 87.0001 62C87.0001 75.8071 75.8072 87 62.0001 87C48.1929 87 37.0001 75.8071 37.0001 62Z" id="Oval" fill="#FFFFFF" fill-rule="evenodd" stroke="none" />
    <path d="M122 0L96.0001 0L96.0001 86L122 86L122 0Z" id="Rectangle" fill="#FFFFFF" fill-rule="evenodd" stroke="none" />
    <path d="M0 1.00003L1.1365e-06 27L86 27L86 1.00003L0 1.00003Z" id="Rectangle-2" fill="#FFFFFF" fill-rule="evenodd" stroke="none" />
    <path d="M37 96.9998L37 123L123 123L123 96.9998L37 96.9998Z" id="Rectangle-4" fill="#FFFFFF" fill-rule="evenodd" stroke="none" />
    <path d="M0.000200637 123L26.0002 123L26.0002 36.9998L0.00021909 36.9998L0.000200637 123Z" id="Rectangle-3" fill="#FFFFFF" fill-rule="evenodd" stroke="none" />
  </g>
</svg>